<svg xmlns="http://www.w3.org/2000/svg" fill="white" width="24" height="24" viewBox="0 0 1.56 1.56" xml:space="preserve"><path d="M.603.78h.717c.021 0 .042-.015.045-.036l.132-.462a.046.046 0 0 0-.045-.06H.345L.327.153A.073.073 0 0 0 .258.099h-.12C.099.099.063.129.06.168a.074.074 0 0 0 .072.078h.069l.228.771a.07.07 0 0 0 .069.054h.846c.039 0 .075-.03.078-.069A.074.074 0 0 0 1.35.924H.606A.071.071 0 0 1 .537.873V.87C.522.825.558.78.603.78zm.135.558a.12.12 0 0 1-.12.12.12.12 0 0 1-.12-.12.12.12 0 0 1 .24 0zm.585 0a.12.12 0 0 1-.12.12.12.12 0 0 1-.12-.12.12.12 0 0 1 .24 0z"/></svg>